<svg width="11" height="10" viewBox="0 0 11 10" fill="none" xmlns="http://www.w3.org/2000/svg">
<path d="M5.80001 9.97102L5.04601 9.29502C4.17067 8.50635 3.44701 7.82602 2.87501 7.25402C2.30301 6.68202 1.84801 6.16852 1.51001 5.71352C1.17201 5.25852 0.935839 4.84035 0.801506 4.45902C0.667173 4.07768 0.600006 3.68768 0.600006 3.28902C0.600006 2.47435 0.873006 1.79402 1.41901 1.24802C1.96501 0.702016 2.64534 0.429016 3.46001 0.429016C3.91067 0.429016 4.33967 0.524349 4.74701 0.715016C5.15434 0.905683 5.50534 1.17435 5.80001 1.52102C6.09467 1.17435 6.44567 0.905683 6.85301 0.715016C7.26034 0.524349 7.68934 0.429016 8.14001 0.429016C8.95467 0.429016 9.63501 0.702016 10.181 1.24802C10.727 1.79402 11 2.47435 11 3.28902C11 3.68768 10.9328 4.07768 10.7985 4.45902C10.6642 4.84035 10.428 5.25852 10.09 5.71352C9.75201 6.16852 9.29701 6.68202 8.72501 7.25402C8.15301 7.82602 7.42934 8.50635 6.55401 9.29502L5.80001 9.97102Z" fill="#1C1B1F"/>
<path d="M5.80001 9.97102L5.04601 9.29502C4.17067 8.50635 3.44701 7.82602 2.87501 7.25402C2.30301 6.68202 1.84801 6.16852 1.51001 5.71352C1.17201 5.25852 0.935839 4.84035 0.801506 4.45902C0.667173 4.07768 0.600006 3.68768 0.600006 3.28902C0.600006 2.47435 0.873006 1.79402 1.41901 1.24802C1.96501 0.702016 2.64534 0.429016 3.46001 0.429016C3.91067 0.429016 4.33967 0.524349 4.74701 0.715016C5.15434 0.905683 5.50534 1.17435 5.80001 1.52102C6.09467 1.17435 6.44567 0.905683 6.85301 0.715016C7.26034 0.524349 7.68934 0.429016 8.14001 0.429016C8.95467 0.429016 9.63501 0.702016 10.181 1.24802C10.727 1.79402 11 2.47435 11 3.28902C11 3.68768 10.9328 4.07768 10.7985 4.45902C10.6642 4.84035 10.428 5.25852 10.09 5.71352C9.75201 6.16852 9.29701 6.68202 8.72501 7.25402C8.15301 7.82602 7.42934 8.50635 6.55401 9.29502L5.80001 9.97102Z" fill="url(#paint0_linear_444_126)"/>
<defs>
<linearGradient id="paint0_linear_444_126" x1="5.80001" y1="0.429016" x2="5.80001" y2="9.97102" gradientUnits="userSpaceOnUse">
<stop stop-color="#FF0D0D"/>
<stop offset="1" stop-color="#FF5093"/>
</linearGradient>
</defs>
</svg>
